<svg xmlns="http://www.w3.org/2000/svg" version="1.1" xmlns:xlink="http://www.w3.org/1999/xlink" xmlns:svgjs="http://svgjs.dev/svgjs" width="2000" height="853" viewBox="0 0 2000 853"><g transform="matrix(1,0,0,1,-1.2121212121213603,0.41506311319096767)"><svg viewBox="0 0 396 169" data-background-color="#fafafa" preserveAspectRatio="xMidYMid meet" height="853" width="2000" xmlns="http://www.w3.org/2000/svg" xmlns:xlink="http://www.w3.org/1999/xlink"><defs></defs><g id="tight-bounds" transform="matrix(1,0,0,1,0.24000000000003752,-0.0822340751808639)"><svg viewBox="0 0 395.5199999999999 169.16446815036173" height="169.16446815036173" width="395.5199999999999"><g><svg viewBox="0 0 653.5663071615369 279.5312417879686" height="169.16446815036173" width="395.5199999999999"><g transform="matrix(1,0,0,1,258.0463071615369,77.41764059841782)"><svg viewBox="0 0 395.52 124.69596059113299" height="124.69596059113299" width="395.52"><g><svg viewBox="0 0 395.52 124.69596059113299" height="124.69596059113299" width="395.52"><g><svg viewBox="0 0 395.52 124.69596059113299" height="124.69596059113299" width="395.52"><g transform="matrix(1,0,0,1,0,0)"><svg width="395.52" viewBox="1.8000001907348633 -36.85000228881836 253.75001525878906 77.20000457763672" height="124.69596059113299" data-palette-color="#130912"><svg></svg><svg></svg><g class="undefined-text-0" data-fill-palette-color="primary" id="text-0"><path d="M5.45 0v0c-0.433 0-0.817-0.11-1.15-0.33-0.333-0.213-0.5-0.537-0.5-0.97v0-33.65c0-0.6 0.167-1.017 0.5-1.25 0.333-0.233 0.717-0.35 1.15-0.35v0c0.4 0 0.76 0.107 1.08 0.32 0.313 0.22 0.603 0.503 0.87 0.85 0.267 0.353 0.5 0.73 0.7 1.13v0l8.6 16.6 8.6-16.6c0.233-0.4 0.477-0.777 0.73-1.13 0.247-0.347 0.537-0.63 0.87-0.85 0.333-0.213 0.683-0.32 1.05-0.32v0c0.467 0 0.86 0.117 1.18 0.35 0.313 0.233 0.47 0.65 0.47 1.25v0 33.65c0 0.433-0.167 0.757-0.5 0.97-0.333 0.22-0.717 0.33-1.15 0.33v0c-0.4 0-0.773-0.11-1.12-0.33-0.353-0.213-0.53-0.537-0.53-0.97v0-28.1l-8.3 15.7c-0.2 0.367-0.417 0.633-0.65 0.8-0.233 0.167-0.467 0.25-0.7 0.25v0c-0.2 0-0.417-0.077-0.65-0.23-0.233-0.147-0.45-0.42-0.65-0.82v0l-8.25-15.85v28.25c0 0.433-0.173 0.757-0.52 0.97-0.353 0.22-0.73 0.33-1.13 0.33zM36.3 0v0c-0.267 0-0.55-0.06-0.85-0.18-0.3-0.113-0.55-0.28-0.75-0.5-0.2-0.213-0.3-0.453-0.3-0.72v0c0-0.133 0.017-0.25 0.05-0.35v0l10.45-33.95c0.133-0.4 0.383-0.693 0.75-0.88 0.367-0.18 0.767-0.27 1.2-0.27v0c0.467 0 0.893 0.1 1.28 0.3 0.38 0.2 0.62 0.483 0.72 0.85v0l10.4 33.95c0.033 0.1 0.05 0.2 0.05 0.3v0c0 0.267-0.1 0.507-0.3 0.72-0.2 0.22-0.45 0.397-0.75 0.53-0.3 0.133-0.617 0.2-0.95 0.2v0c-0.267 0-0.517-0.067-0.75-0.2-0.233-0.133-0.383-0.35-0.45-0.65v0l-2.35-7.7h-13.8l-2.3 7.7c-0.1 0.3-0.267 0.517-0.5 0.65-0.233 0.133-0.517 0.2-0.85 0.2zM46.85-31.55l-6.1 20.15h12.15zM65.75 0v0c-0.433 0-0.817-0.11-1.15-0.33-0.333-0.213-0.5-0.537-0.5-0.97v0-34c0-0.467 0.167-0.79 0.5-0.97 0.333-0.187 0.717-0.28 1.15-0.28v0c0.4 0 0.75 0.107 1.05 0.32 0.3 0.22 0.583 0.497 0.85 0.83 0.267 0.333 0.5 0.717 0.7 1.15v0l13.5 26.6v-27.7c0-0.433 0.167-0.74 0.5-0.92 0.333-0.187 0.717-0.28 1.15-0.28v0c0.4 0 0.777 0.093 1.13 0.28 0.347 0.18 0.52 0.487 0.52 0.92v0 34.05c0 0.433-0.173 0.757-0.52 0.97-0.353 0.22-0.73 0.33-1.13 0.33v0c-0.467 0-0.883-0.2-1.25-0.6-0.367-0.4-0.683-0.833-0.95-1.3v0l-13.9-27.05v27.65c0 0.433-0.173 0.757-0.52 0.97-0.353 0.22-0.73 0.33-1.13 0.33zM94.4 0v0c-0.433 0-0.817-0.11-1.15-0.33-0.333-0.213-0.5-0.537-0.5-0.97v0-34.05c0-0.4 0.167-0.7 0.5-0.9 0.333-0.2 0.717-0.3 1.15-0.3v0c0.4 0 0.777 0.1 1.13 0.3 0.347 0.2 0.52 0.5 0.52 0.9v0 34.05c0 0.433-0.173 0.757-0.52 0.97-0.353 0.22-0.73 0.33-1.13 0.33zM105.3 0v0c-0.433 0-0.817-0.11-1.15-0.33-0.333-0.213-0.5-0.537-0.5-0.97v0-33.65c0-0.6 0.167-1.017 0.5-1.25 0.333-0.233 0.717-0.35 1.15-0.35v0c0.4 0 0.76 0.107 1.08 0.32 0.313 0.22 0.603 0.503 0.87 0.85 0.267 0.353 0.5 0.73 0.7 1.13v0l8.6 16.6 8.6-16.6c0.233-0.4 0.477-0.777 0.73-1.13 0.247-0.347 0.537-0.63 0.87-0.85 0.333-0.213 0.683-0.32 1.05-0.32v0c0.467 0 0.86 0.117 1.18 0.35 0.313 0.233 0.47 0.65 0.47 1.25v0 33.65c0 0.433-0.167 0.757-0.5 0.97-0.333 0.22-0.717 0.33-1.15 0.33v0c-0.4 0-0.773-0.11-1.12-0.33-0.353-0.213-0.53-0.537-0.53-0.97v0-28.1l-8.3 15.7c-0.2 0.367-0.417 0.633-0.65 0.8-0.233 0.167-0.467 0.25-0.7 0.25v0c-0.2 0-0.417-0.077-0.65-0.23-0.233-0.147-0.45-0.42-0.65-0.82v0l-8.25-15.85v28.25c0 0.433-0.173 0.757-0.52 0.97-0.353 0.22-0.73 0.33-1.13 0.33zM157.4 0h-8.85c-0.433 0-0.793-0.117-1.08-0.35-0.28-0.233-0.42-0.533-0.42-0.9v0-34.1c0-0.333 0.14-0.617 0.42-0.85 0.287-0.233 0.647-0.35 1.08-0.35v0h8.85c1.967 0 3.74 0.35 5.32 1.05 1.587 0.7 2.837 1.833 3.75 3.4 0.92 1.567 1.38 3.633 1.38 6.2v0 15.2c0 2.6-0.46 4.683-1.38 6.25-0.913 1.567-2.163 2.7-3.75 3.4-1.58 0.7-3.353 1.05-5.32 1.05zM150.35-33.5v30.45h7.05c2.233 0 3.983-0.617 5.25-1.85 1.267-1.233 1.9-3.167 1.9-5.8v0-15.2c0-2.6-0.633-4.517-1.9-5.75-1.267-1.233-3.017-1.85-5.25-1.85v0zM174.15 0v0c-0.267 0-0.55-0.06-0.85-0.18-0.3-0.113-0.55-0.28-0.75-0.5-0.2-0.213-0.3-0.453-0.3-0.72v0c0-0.133 0.017-0.25 0.05-0.35v0l10.45-33.95c0.133-0.4 0.383-0.693 0.75-0.88 0.367-0.18 0.767-0.27 1.2-0.27v0c0.467 0 0.89 0.1 1.27 0.3 0.387 0.2 0.63 0.483 0.73 0.85v0l10.4 33.95c0.033 0.1 0.05 0.2 0.05 0.3v0c0 0.267-0.1 0.507-0.3 0.72-0.2 0.22-0.45 0.397-0.75 0.53-0.3 0.133-0.617 0.2-0.95 0.2v0c-0.267 0-0.517-0.067-0.75-0.2-0.233-0.133-0.383-0.35-0.45-0.65v0l-2.35-7.7h-13.8l-2.3 7.7c-0.1 0.3-0.267 0.517-0.5 0.65-0.233 0.133-0.517 0.2-0.85 0.2zM184.7-31.55l-6.1 20.15h12.15zM207.25 0v0c-0.433 0-0.817-0.11-1.15-0.33-0.333-0.213-0.5-0.537-0.5-0.97v0-32.15h-8.4c-0.4 0-0.707-0.16-0.92-0.48-0.22-0.313-0.33-0.67-0.33-1.07v0c0-0.4 0.11-0.76 0.33-1.08 0.213-0.313 0.52-0.47 0.92-0.47v0h20.05c0.433 0 0.75 0.15 0.95 0.45 0.2 0.3 0.3 0.65 0.3 1.05v0c0 0.4-0.1 0.767-0.3 1.1-0.2 0.333-0.517 0.5-0.95 0.5v0h-8.35v32.15c0 0.433-0.173 0.757-0.52 0.97-0.353 0.22-0.73 0.33-1.13 0.33zM219.2 0v0c-0.267 0-0.55-0.06-0.85-0.18-0.3-0.113-0.55-0.28-0.75-0.5-0.2-0.213-0.3-0.453-0.3-0.72v0c0-0.133 0.017-0.25 0.05-0.35v0l10.45-33.95c0.133-0.4 0.383-0.693 0.75-0.88 0.367-0.18 0.767-0.27 1.2-0.27v0c0.467 0 0.893 0.1 1.28 0.3 0.38 0.2 0.62 0.483 0.72 0.85v0l10.4 33.95c0.033 0.1 0.05 0.2 0.05 0.3v0c0 0.267-0.1 0.507-0.3 0.72-0.2 0.22-0.45 0.397-0.75 0.53-0.3 0.133-0.617 0.2-0.95 0.2v0c-0.267 0-0.517-0.067-0.75-0.2-0.233-0.133-0.383-0.35-0.45-0.65v0l-2.35-7.7h-13.8l-2.3 7.7c-0.1 0.3-0.267 0.517-0.5 0.65-0.233 0.133-0.517 0.2-0.85 0.2zM229.75-31.55l-6.1 20.15h12.15z" data-fill-palette-color="primary" fill="#130912" opacity="1"></path><path d="M12.05 40.35v0c-2.133 0-3.967-0.327-5.5-0.98-1.533-0.647-2.707-1.397-3.52-2.25-0.82-0.847-1.23-1.57-1.23-2.17v0c0-0.267 0.073-0.55 0.22-0.85 0.153-0.3 0.347-0.543 0.58-0.73 0.233-0.18 0.467-0.27 0.7-0.27v0c0.333 0 0.677 0.207 1.03 0.62 0.347 0.42 0.813 0.903 1.4 1.45 0.58 0.553 1.353 1.037 2.32 1.45 0.967 0.42 2.233 0.63 3.8 0.63v0c1.567 0 2.91-0.26 4.03-0.78 1.113-0.513 1.963-1.28 2.55-2.3 0.58-1.013 0.87-2.287 0.87-3.82v0c0-1.6-0.3-2.893-0.9-3.88-0.6-0.98-1.39-1.78-2.37-2.4-0.987-0.613-2.063-1.147-3.23-1.6-1.167-0.447-2.34-0.897-3.52-1.35-1.187-0.447-2.27-1.013-3.25-1.7-0.987-0.68-1.787-1.58-2.4-2.7-0.62-1.113-0.93-2.537-0.93-4.27v0c0-1.833 0.333-3.333 1-4.5 0.667-1.167 1.527-2.083 2.58-2.75 1.047-0.667 2.187-1.143 3.42-1.43 1.233-0.28 2.433-0.42 3.6-0.42v0c0.933 0 1.893 0.073 2.88 0.22 0.98 0.153 1.887 0.363 2.72 0.63 0.833 0.267 1.51 0.583 2.03 0.95 0.513 0.367 0.77 0.783 0.77 1.25v0c0 0.233-0.057 0.49-0.17 0.77-0.12 0.287-0.28 0.537-0.48 0.75-0.2 0.22-0.467 0.33-0.8 0.33v0c-0.3 0-0.717-0.16-1.25-0.48-0.533-0.313-1.26-0.63-2.18-0.95-0.913-0.313-2.103-0.47-3.57-0.47v0c-1.2 0-2.357 0.173-3.47 0.52-1.12 0.353-2.03 0.947-2.73 1.78-0.7 0.833-1.05 2-1.05 3.5v0c0 1.333 0.31 2.407 0.93 3.22 0.613 0.82 1.413 1.48 2.4 1.98 0.98 0.5 2.053 0.957 3.22 1.37 1.167 0.42 2.34 0.887 3.52 1.4 1.187 0.52 2.273 1.17 3.26 1.95 0.98 0.787 1.77 1.813 2.37 3.08 0.6 1.267 0.9 2.9 0.9 4.9v0c0 2.367-0.45 4.307-1.35 5.82-0.9 1.52-2.14 2.647-3.72 3.38-1.587 0.733-3.413 1.1-5.48 1.1zM36.45 40v0c-0.433 0-0.817-0.11-1.15-0.33-0.333-0.213-0.5-0.537-0.5-0.97v0-32.15h-8.4c-0.4 0-0.707-0.16-0.92-0.48-0.22-0.313-0.33-0.67-0.33-1.07v0c0-0.4 0.11-0.76 0.33-1.08 0.213-0.313 0.52-0.47 0.92-0.47v0h20.05c0.433 0 0.75 0.15 0.95 0.45 0.2 0.3 0.3 0.65 0.3 1.05v0c0 0.4-0.1 0.767-0.3 1.1-0.2 0.333-0.517 0.5-0.95 0.5v0h-8.35v32.15c0 0.433-0.173 0.757-0.52 0.97-0.353 0.22-0.73 0.33-1.13 0.33zM71.25 40.05v0c-0.367 0-0.7-0.183-1-0.55-0.3-0.367-0.533-0.75-0.7-1.15v0l-7.75-15h-6.35v15.35c0 0.433-0.173 0.757-0.52 0.97-0.353 0.22-0.73 0.33-1.13 0.33v0c-0.433 0-0.817-0.11-1.15-0.33-0.333-0.213-0.5-0.537-0.5-0.97v0-34.05c0-0.333 0.117-0.61 0.35-0.83 0.233-0.213 0.533-0.337 0.9-0.37v0h8.85c1.967 0 3.767 0.3 5.4 0.9 1.633 0.6 2.943 1.607 3.93 3.02 0.98 1.42 1.47 3.397 1.47 5.93v0c0 2.067-0.34 3.767-1.02 5.1-0.687 1.333-1.62 2.357-2.8 3.07-1.187 0.72-2.513 1.213-3.98 1.48v0l7.7 14.8c0.1 0.1 0.16 0.207 0.18 0.32 0.013 0.12 0.02 0.23 0.02 0.33v0c0 0.267-0.09 0.533-0.27 0.8-0.187 0.267-0.43 0.473-0.73 0.62-0.3 0.153-0.6 0.23-0.9 0.23zM55.45 6.5v14h6.8c2.233 0 4.043-0.543 5.43-1.63 1.38-1.08 2.07-2.887 2.07-5.42v0c0-2.5-0.69-4.283-2.07-5.35-1.387-1.067-3.197-1.6-5.43-1.6v0zM88.8 40.3v0c-1.967 0-3.733-0.35-5.3-1.05-1.567-0.7-2.817-1.833-3.75-3.4-0.933-1.567-1.4-3.65-1.4-6.25v0-24.95c0-0.4 0.167-0.7 0.5-0.9 0.333-0.2 0.717-0.3 1.15-0.3v0c0.433 0 0.817 0.1 1.15 0.3 0.333 0.2 0.5 0.5 0.5 0.9v0 24.95c0 2.633 0.633 4.567 1.9 5.8 1.267 1.233 3.017 1.85 5.25 1.85v0c2.267 0 4.033-0.617 5.3-1.85 1.267-1.233 1.9-3.167 1.9-5.8v0-24.95c0-0.4 0.167-0.7 0.5-0.9 0.333-0.2 0.717-0.3 1.15-0.3v0c0.433 0 0.817 0.1 1.15 0.3 0.333 0.2 0.5 0.5 0.5 0.9v0 24.95c0 2.6-0.457 4.683-1.37 6.25-0.92 1.567-2.18 2.7-3.78 3.4-1.6 0.7-3.383 1.05-5.35 1.05zM116.7 40.3v0c-1.867 0-3.59-0.35-5.17-1.05-1.587-0.7-2.847-1.833-3.78-3.4-0.933-1.567-1.4-3.65-1.4-6.25v0-15.5c0-2.567 0.477-4.633 1.43-6.2 0.947-1.567 2.213-2.7 3.8-3.4 1.58-0.7 3.32-1.05 5.22-1.05v0c2.2 0 4.067 0.383 5.6 1.15 1.533 0.767 2.71 1.783 3.53 3.05 0.813 1.267 1.22 2.65 1.22 4.15v0c0 0.8-0.14 1.333-0.42 1.6-0.287 0.267-0.697 0.4-1.23 0.4v0c-0.6 0-1.023-0.127-1.27-0.38-0.253-0.247-0.38-0.537-0.38-0.87v0c-0.033-0.533-0.14-1.15-0.32-1.85-0.187-0.7-0.52-1.367-1-2-0.487-0.633-1.187-1.16-2.1-1.58-0.92-0.413-2.113-0.62-3.58-0.62v0c-2.333 0-4.117 0.617-5.35 1.85-1.233 1.233-1.85 3.15-1.85 5.75v0 15.5c0 2.633 0.627 4.567 1.88 5.8 1.247 1.233 3.07 1.85 5.47 1.85v0c1.5 0 2.683-0.21 3.55-0.63 0.867-0.413 1.527-0.93 1.98-1.55 0.447-0.613 0.753-1.28 0.92-2 0.167-0.713 0.3-1.37 0.4-1.97v0c0.033-0.433 0.183-0.76 0.45-0.98 0.267-0.213 0.65-0.32 1.15-0.32v0c0.567 0 0.993 0.14 1.28 0.42 0.28 0.287 0.42 0.83 0.42 1.63v0c0 1.5-0.417 2.89-1.25 4.17-0.833 1.287-2.023 2.32-3.57 3.1-1.553 0.787-3.43 1.18-5.63 1.18zM141.1 40v0c-0.433 0-0.817-0.11-1.15-0.33-0.333-0.213-0.5-0.537-0.5-0.97v0-32.15h-8.4c-0.4 0-0.707-0.16-0.92-0.48-0.22-0.313-0.33-0.67-0.33-1.07v0c0-0.4 0.11-0.76 0.33-1.08 0.213-0.313 0.52-0.47 0.92-0.47v0h20.05c0.433 0 0.75 0.15 0.95 0.45 0.2 0.3 0.3 0.65 0.3 1.05v0c0 0.4-0.1 0.767-0.3 1.1-0.2 0.333-0.517 0.5-0.95 0.5v0h-8.35v32.15c0 0.433-0.173 0.757-0.52 0.97-0.353 0.22-0.73 0.33-1.13 0.33zM167.05 40.3v0c-1.967 0-3.733-0.35-5.3-1.05-1.567-0.7-2.817-1.833-3.75-3.4-0.933-1.567-1.4-3.65-1.4-6.25v0-24.95c0-0.4 0.167-0.7 0.5-0.9 0.333-0.2 0.717-0.3 1.15-0.3v0c0.433 0 0.817 0.1 1.15 0.3 0.333 0.2 0.5 0.5 0.5 0.9v0 24.95c0 2.633 0.633 4.567 1.9 5.8 1.267 1.233 3.017 1.85 5.25 1.85v0c2.267 0 4.033-0.617 5.3-1.85 1.267-1.233 1.9-3.167 1.9-5.8v0-24.95c0-0.4 0.167-0.7 0.5-0.9 0.333-0.2 0.717-0.3 1.15-0.3v0c0.433 0 0.817 0.1 1.15 0.3 0.333 0.2 0.5 0.5 0.5 0.9v0 24.95c0 2.6-0.457 4.683-1.37 6.25-0.92 1.567-2.18 2.7-3.78 3.4-1.6 0.7-3.383 1.05-5.35 1.05zM204.05 40.05v0c-0.367 0-0.7-0.183-1-0.55-0.3-0.367-0.533-0.75-0.7-1.15v0l-7.75-15h-6.35v15.35c0 0.433-0.173 0.757-0.52 0.97-0.353 0.22-0.73 0.33-1.13 0.33v0c-0.433 0-0.817-0.11-1.15-0.33-0.333-0.213-0.5-0.537-0.5-0.97v0-34.05c0-0.333 0.117-0.61 0.35-0.83 0.233-0.213 0.533-0.337 0.9-0.37v0h8.85c1.967 0 3.767 0.3 5.4 0.9 1.633 0.6 2.943 1.607 3.93 3.02 0.98 1.42 1.47 3.397 1.47 5.93v0c0 2.067-0.34 3.767-1.02 5.1-0.687 1.333-1.62 2.357-2.8 3.07-1.187 0.72-2.513 1.213-3.98 1.48v0l7.7 14.8c0.1 0.1 0.16 0.207 0.18 0.32 0.013 0.12 0.02 0.23 0.02 0.33v0c0 0.267-0.09 0.533-0.27 0.8-0.187 0.267-0.43 0.473-0.73 0.62-0.3 0.153-0.6 0.23-0.9 0.23zM188.25 6.5v14h6.8c2.233 0 4.043-0.543 5.43-1.63 1.38-1.08 2.07-2.887 2.07-5.42v0c0-2.5-0.69-4.283-2.07-5.35-1.387-1.067-3.197-1.6-5.43-1.6v0zM230.65 40h-17.8c-0.367 0-0.707-0.11-1.02-0.33-0.32-0.213-0.48-0.537-0.48-0.97v0-34c0-0.4 0.16-0.71 0.48-0.93 0.313-0.213 0.653-0.32 1.02-0.32v0h17.8c0.433 0 0.75 0.157 0.95 0.47 0.2 0.32 0.3 0.647 0.3 0.98v0c0 0.433-0.107 0.807-0.32 1.12-0.22 0.32-0.53 0.48-0.93 0.48v0h-16v13.75h7.85c0.4 0 0.71 0.15 0.93 0.45 0.213 0.3 0.32 0.65 0.32 1.05v0c0 0.3-0.1 0.6-0.3 0.9-0.2 0.3-0.517 0.45-0.95 0.45v0h-7.85v13.85h16c0.4 0 0.71 0.15 0.93 0.45 0.213 0.3 0.32 0.667 0.32 1.1v0c0 0.367-0.1 0.707-0.3 1.02-0.2 0.32-0.517 0.48-0.95 0.48zM245 40.35v0c-2.133 0-3.967-0.327-5.5-0.98-1.533-0.647-2.707-1.397-3.52-2.25-0.82-0.847-1.23-1.57-1.23-2.17v0c0-0.267 0.077-0.55 0.23-0.85 0.147-0.3 0.337-0.543 0.57-0.73 0.233-0.18 0.467-0.27 0.7-0.27v0c0.333 0 0.677 0.207 1.03 0.62 0.347 0.42 0.813 0.903 1.4 1.45 0.58 0.553 1.353 1.037 2.32 1.45 0.967 0.42 2.233 0.63 3.8 0.63v0c1.567 0 2.91-0.26 4.03-0.78 1.113-0.513 1.963-1.28 2.55-2.3 0.58-1.013 0.87-2.287 0.87-3.82v0c0-1.6-0.3-2.893-0.9-3.88-0.6-0.98-1.39-1.78-2.37-2.4-0.987-0.613-2.063-1.147-3.23-1.6-1.167-0.447-2.34-0.897-3.52-1.35-1.187-0.447-2.27-1.013-3.25-1.7-0.987-0.68-1.787-1.58-2.4-2.7-0.62-1.113-0.93-2.537-0.93-4.27v0c0-1.833 0.333-3.333 1-4.5 0.667-1.167 1.527-2.083 2.58-2.75 1.047-0.667 2.187-1.143 3.42-1.43 1.233-0.28 2.433-0.42 3.6-0.42v0c0.933 0 1.893 0.073 2.88 0.22 0.98 0.153 1.887 0.363 2.72 0.63 0.833 0.267 1.51 0.583 2.03 0.95 0.513 0.367 0.77 0.783 0.77 1.25v0c0 0.233-0.057 0.49-0.17 0.77-0.12 0.287-0.28 0.537-0.48 0.75-0.2 0.22-0.467 0.33-0.8 0.33v0c-0.3 0-0.717-0.16-1.25-0.48-0.533-0.313-1.257-0.63-2.17-0.95-0.92-0.313-2.113-0.47-3.58-0.47v0c-1.2 0-2.357 0.173-3.47 0.52-1.12 0.353-2.03 0.947-2.73 1.78-0.7 0.833-1.05 2-1.05 3.5v0c0 1.333 0.31 2.407 0.93 3.22 0.613 0.82 1.413 1.48 2.4 1.98 0.98 0.5 2.053 0.957 3.22 1.37 1.167 0.42 2.343 0.887 3.53 1.4 1.18 0.52 2.263 1.17 3.25 1.95 0.98 0.787 1.77 1.813 2.37 3.08 0.6 1.267 0.9 2.9 0.9 4.9v0c0 2.367-0.45 4.307-1.35 5.82-0.9 1.52-2.14 2.647-3.72 3.38-1.587 0.733-3.413 1.1-5.48 1.1z" data-fill-palette-color="accent" fill="#e77917" opacity="1"></path></g></svg></g></svg></g></svg></g></svg></g><g><svg viewBox="0 0 244.43135999999998 279.5312417879686" height="279.5312417879686" width="244.43135999999998"><g><svg xmlns="http://www.w3.org/2000/svg" data-name="Layer 1" viewBox="17.399999618530273 13.80511474609375 63.29999542236328 72.38975524902344" x="0" y="0" height="279.5312417879686" width="244.43135999999998" class="icon-icon-0" data-fill-palette-color="accent" id="icon-0"><path d="M74.3 68.2V45.2a2.7 2.7 0 0 0-2.7-2.7H51.8V31.8a9.2 9.2 0 1 0-5.4 0V42.5H26.6a2.7 2.7 0 0 0-2.7 2.7V68.2a9.2 9.2 0 1 0 5.4 0V48h17V68.2a9.2 9.2 0 1 0 5.4 0V48h17V68.2A9.2 9.2 0 1 0 74.3 68.2ZM26.6 80.6a3.7 3.7 0 1 1 3.7-3.7A3.7 3.7 0 0 1 26.6 80.6ZM49.1 19.4a3.7 3.7 0 1 1-3.7 3.7A3.7 3.7 0 0 1 49.1 19.4Zm0 61.2a3.7 3.7 0 1 1 3.7-3.7A3.7 3.7 0 0 1 49.1 80.6Zm22.5 0a3.7 3.7 0 1 1 3.7-3.7A3.7 3.7 0 0 1 71.6 80.6Z" fill="#e77917" data-fill-palette-color="accent"></path></svg></g></svg></g></svg></g></svg><rect width="395.5199999999999" height="169.16446815036173" fill="none" stroke="none" visibility="hidden"></rect></g></svg></g></svg>